# xmcd
#
# Track frame offsets:
#	150
#	20085
#	34417
#	51497
#	65625
#	80482
#	97397
#	115245
#	135740
#	152920
#	170275
#	190212
#	204542
#	221622
#	235747
#	250602
#	267520
#	285367
#	305860
#	323040
#
# Disc length: 4537 seconds
#
# Revision: 1
# Processed by: cddbd v1.5.1PL0 Copyright (c) Steve Scherf et al.
# Submitted via: audiograbber 1.82.02
#
DISCID=3311b714
DTITLE=Various Artist - Top Hits Monthly Country 0112C
DYEAR=1900
DGENRE=Karaoke
TTITLE0=Jeff Carson W - Vocals - Real Life ( I never was the same again ) W - V
TTITLE0=ocals
TTITLE1=Brad Paisley W - Vocals - Wrapped around W - Vocals
TTITLE2=Tracy Byrrd W - Vocals - Just let me be in love W - Vocals
TTITLE3=Toby Keith W - Vocals - I wanna talk about me W - Vocals
TTITLE4=Jo Dee Messina and Tim McGraw W - Vocals - Bring on the rain W - Vocals
TTITLE5=Lonestar W - Vocals - With me W - Vocals
TTITLE6=Montgomery Gentry W - Vocals - Cold one comin' on
TTITLE7=David Ball W - Vocals - Riding with private Malone W - Vocals
TTITLE8=Sara Evans W - Vocals - Saints and Angels W - Vocals
TTITLE9=Jamie O'Neal W - Vocals - Shiver W - Vocals
TTITLE10=Jeff Carson - Real Life ( I never was the same again )
TTITLE11=Brad Paisley - Wrapped around
TTITLE12=Tracy Byrd - Just let me be in love
TTITLE13=Toby Keith - I wanna talk about me
TTITLE14=Jo Dee Messina and Tim McGraw - Bring on the rain
TTITLE15=Lonestar - With me
TTITLE16=Montgomery Gentyr - Cold one comin' on
TTITLE17=David Ball - Riding with private Malone
TTITLE18=Sara Evans - Saints and Angels
TTITLE19=Jamie O'Neal - Shiver
EXTD=
EXTT0=
EXTT1=
EXTT2=
EXTT3=
EXTT4=
EXTT5=
EXTT6=
EXTT7=
EXTT8=
EXTT9=
EXTT10=
EXTT11=
EXTT12=
EXTT13=
EXTT14=
EXTT15=
EXTT16=
EXTT17=
EXTT18=
EXTT19=
PLAYORDER=
